<?xml version="1.0" standalone="no"?>
<!DOCTYPE svg PUBLIC "-//W3C//DTD SVG 20010904//EN"
 "http://www.w3.org/TR/2001/REC-SVG-20010904/DTD/svg10.dtd">
<svg version="1.0" xmlns="http://www.w3.org/2000/svg"
 width="512.000000pt" height="512.000000pt" viewBox="0 0 512.000000 512.000000"
 preserveAspectRatio="xMidYMid meet">
<metadata>
Created by potrace 1.14, written by Peter Selinger 2001-2017
</metadata>
<g transform="translate(0.000000,512.000000) scale(0.100000,-0.100000)"
fill="#000000" stroke="none">
<path d="M1708 5105 c-55 -20 -105 -62 -134 -111 l-26 -43 -681 -3 c-643 -3
-684 -4 -717 -22 -63 -33 -118 -95 -139 -156 -3 -8 -5 -256 -6 -550 0 -589 -2
-565 63 -638 29 -32 94 -70 133 -77 13 -3 132 -5 265 -6 l243 -1 36 -96 c225
-599 207 -555 243 -574 36 -17 79 -10 102 16 10 13 24 80 34 166 3 25 8 68 11
95 3 28 8 61 10 75 2 14 7 50 10 80 4 30 8 66 10 80 2 14 7 52 10 85 4 33 9
63 11 67 3 5 97 8 210 8 191 0 206 -1 226 -20 55 -51 106 -65 241 -66 70 0
132 -5 137 -10 5 -5 40 -65 78 -134 38 -69 81 -146 96 -172 57 -103 77 -140
102 -185 94 -169 137 -243 148 -252 32 -27 105 -10 126 29 9 17 7 115 -5 180
-4 23 -8 59 -20 180 -3 25 -9 83 -15 130 -6 47 -13 119 -16 160 l-6 75 352 -1
c385 0 421 4 478 59 l27 26 380 0 381 1 -2 -133 c-8 -473 -7 -497 11 -517 28
-31 68 -40 101 -24 30 15 44 40 285 516 l80 156 182 4 182 3 48 30 c51 32 97
90 115 144 9 25 11 182 10 560 -3 490 -4 529 -22 563 -27 55 -84 106 -144 128
-51 19 -79 20 -806 20 l-754 0 -10 29 c-13 37 -69 92 -118 117 -37 18 -69 19
-779 21 -609 1 -747 -1 -777 -12z"/>
<path d="M987 2474 c-1 -1 -27 -4 -57 -8 -245 -26 -471 -215 -554 -461 -25
-73 -31 -119 -30 -230 2 -149 43 -270 134 -390 l47 -62 -76 -51 c-171 -113
-314 -299 -390 -504 -49 -134 -60 -222 -61 -511 l-1 -257 2562 0 2561 0 -5
288 c-2 158 -7 301 -11 317 -21 95 -51 187 -81 251 -73 160 -211 320 -355 416
l-77 51 46 61 c51 67 78 120 112 217 19 53 22 85 22 189 0 108 -4 136 -26 205
-122 372 -517 569 -878 439 -178 -64 -305 -179 -389 -354 -99 -204 -86 -445
37 -644 20 -34 39 -63 42 -66 3 -3 14 -15 24 -26 17 -21 17 -22 -50 -65 -37
-24 -108 -83 -156 -130 l-88 -87 -57 50 c-31 27 -83 66 -114 85 -32 20 -58 37
-58 39 0 2 16 25 35 50 152 199 188 447 99 675 -10 24 -36 74 -59 110 -238
372 -758 426 -1064 109 -176 -182 -236 -437 -160 -680 25 -78 67 -157 116
-216 20 -25 34 -47 31 -49 -2 -3 -31 -22 -64 -43 -32 -21 -82 -60 -110 -85
l-51 -47 -59 62 c-61 64 -152 138 -217 177 l-38 23 34 42 c302 369 129 939
-328 1080 -61 19 -226 40 -238 30z"/>
</g>
</svg>
